<?xml version="1.0" encoding="UTF-8"?>
<svg id="Layer_1" data-name="Layer 1" xmlns="http://www.w3.org/2000/svg" viewBox="0 0 891.64 644.47">
  <path d="M34.34,107h48.5c1.9,0,3.66,1.02,4.6,2.67l131.34,229.29c4.21,7.9,7.68,14.69,11.2,22.18,1.88,4.01,7.55,4.12,9.55,.16,2.79-5.52,4.92-9.62,11.53-22.34L380.9,109.69c.94-1.66,2.7-2.69,4.62-2.69h47.04c4.08,0,6.63,4.41,4.6,7.95l-66.27,115.14c-210.21,270.58-109.31,265.5-109.31,409.07h0c0,2.93-2.38,5.3-5.3,5.3h-43.44c-2.93,0-5.3-2.38-5.3-5.3v-56.1c0-106.78-3.1-220.33-56.86-312.59L29.76,114.98c-2.06-3.54,.49-7.98,4.58-7.98Z"/>
  <text/>
  <text/>
</svg>